<mxfile host="app.diagrams.net" modified="2023-10-20T16:16:47.975Z" agent="Mozilla/5.0 (Windows NT 10.0; Win64; x64) AppleWebKit/537.36 (KHTML, like Gecko) Chrome/118.0.0.0 Safari/537.36" version="22.0.6" etag="i09HWgzVCA_Fo7Gix04K" type="github">
  <diagram name="Page-1" id="3vPdXB9kvXDTpnlST0X_">
    <mxGraphModel>
      <root>
        <mxCell id="0" />
        <mxCell id="1" parent="0" />
      </root>
    </mxGraphModel>
  </diagram>
</mxfile>
